# xmcd
#
# Track frame offsets:
#	150
#	10799
#	23172
#	35034
#	51290
#	63643
#	74333
#	86336
#	97702
#	109959
#	122965
#	138167
#	150512
#	161864
#	174550
#	188714
#	202852
#	219065
#
# Disc length: 3074 seconds
#
# Revision: 0
# Processed by: cddbd v1.5.2PL0 Copyright (c) Steve Scherf et al.
# Submitted via: audiograbber 1.83.01
#
DISCID=ed0c0012
DTITLE=Ray Charles - Ray Charles Collection Vol. 2
DYEAR=1900
DGENRE=Blues
TTITLE0=Hey Now
TTITLE1=Honey Honey
TTITLE2=How Long, How Long Blues
TTITLE3=I Found My Baby There (St Pete Florida Blues)
TTITLE4=I Love You I Love You (I Will Never Let You Go)
TTITLE5=I Wonder Who's Kissing Her Now
TTITLE6=If I Give You My Love
TTITLE7=I'll Do Anything But Work
TTITLE8=I'm Glad For Your Sake
TTITLE9=I'm Just A Lonely Boy
TTITLE10=I'm Wonderin' and Wonderin'
TTITLE11=I've Had My Fun (Going Down Slow)
TTITLE12=Jack, She's On The Ball
TTITLE13=Junpin' In The Morning
TTITLE14=Kissa Me Baby
TTITLE15=Late In The Evening Blues
TTITLE16=Let Me Hear You Call My Name
TTITLE17=Let's Have A Ball
EXTD=
EXTT0=
EXTT1=
EXTT2=
EXTT3=
EXTT4=
EXTT5=
EXTT6=
EXTT7=
EXTT8=
EXTT9=
EXTT10=
EXTT11=
EXTT12=
EXTT13=
EXTT14=
EXTT15=
EXTT16=
EXTT17=
PLAYORDER=
